<?xml version="1.0" encoding="utf-8"?>
<!-- Generator: Adobe Illustrator 25.1.0, SVG Export Plug-In . SVG Version: 6.00 Build 0)  -->
<svg version="1.1" id="Layer_1" xmlns="http://www.w3.org/2000/svg" xmlns:xlink="http://www.w3.org/1999/xlink" x="0px" y="0px"
	 viewBox="0 0 416 416" style="enable-background:new 0 0 416 416;" xml:space="preserve">
<style type="text/css">
	.st0{fill:#202842;}
</style>
<path class="st0" d="M208,0C93.3,0,0,93.3,0,208s93.3,208,208,208s208-93.3,208-208S322.7,0,208,0z M316.2,138.3l-134.4,160
	c-3,3.6-7.4,5.6-12,5.7h-0.3c-4.5,0-8.9-1.9-11.9-5.3l-57.6-64c-6.1-6.4-5.8-16.6,0.7-22.6c6.4-6.1,16.6-5.8,22.6,0.7
	c0.2,0.2,0.3,0.4,0.5,0.6l45.3,50.3l122.6-145.9c5.8-6.7,15.9-7.4,22.6-1.6C320.9,121.7,321.7,131.6,316.2,138.3z"/>
</svg>
